<?xml version="1.0" encoding="UTF-8" standalone="no"?>
<!DOCTYPE svg PUBLIC "-//W3C//DTD SVG 1.1//EN"
 "http://www.w3.org/Graphics/SVG/1.1/DTD/svg11.dtd">
<!-- Generated by graphviz version 2.47.0 (20210316.0004)
 -->
<!-- Title: dependencies Pages: 1 -->
<svg width="3060pt" height="284pt"
 viewBox="0.00 0.00 3060.00 284.00" xmlns="http://www.w3.org/2000/svg" xmlns:xlink="http://www.w3.org/1999/xlink">
<g id="graph0" class="graph" transform="scale(1 1) rotate(0) translate(4 280)">
<title>dependencies</title>
<polygon fill="white" stroke="transparent" points="-4,4 -4,-280 3056,-280 3056,4 -4,4"/>
<text text-anchor="start" x="1505.01" y="-42.4" font-family="Times-12" font-weight="bold" font-size="14.00">Legend</text>
<polygon fill="#ffffb3" stroke="transparent" points="1292,-10 1292,-30 1312,-30 1312,-10 1292,-10"/>
<text text-anchor="start" x="1315.63" y="-15.4" font-family="Times-12" font-size="14.00"> &#160;Declarations</text>
<polygon fill="#8dd3c7" stroke="transparent" points="1405,-10 1405,-30 1425,-30 1425,-10 1405,-10"/>
<text text-anchor="start" x="1428.73" y="-15.4" font-family="Times-12" font-size="14.00"> &#160;Module</text>
<polygon fill="#80b1d3" stroke="transparent" points="1491,-10 1491,-30 1511,-30 1511,-10 1491,-10"/>
<text text-anchor="start" x="1514.78" y="-15.4" font-family="Times-12" font-size="14.00"> &#160;Bootstrap</text>
<polygon fill="#fdb462" stroke="transparent" points="1588,-10 1588,-30 1608,-30 1608,-10 1588,-10"/>
<text text-anchor="start" x="1611.67" y="-15.4" font-family="Times-12" font-size="14.00"> &#160;Providers</text>
<polygon fill="#fb8072" stroke="transparent" points="1684,-10 1684,-30 1704,-30 1704,-10 1684,-10"/>
<text text-anchor="start" x="1707.73" y="-15.4" font-family="Times-12" font-size="14.00"> &#160;Exports</text>
<g id="clust1" class="cluster">
<title>cluster_AppModule</title>
<polygon fill="none" stroke="black" stroke-dasharray="1,5" points="8,-70 8,-268 3044,-268 3044,-70 8,-70"/>
</g>
<g id="clust19" class="cluster">
<title>cluster_AppModule_imports</title>
<polygon fill="none" stroke="black" points="2892,-78 2892,-130 3036,-130 3036,-78 2892,-78"/>
</g>
<g id="clust21" class="cluster">
<title>cluster_AppModule_bootstrap</title>
<polygon fill="none" stroke="black" points="1385,-208 1385,-260 1509,-260 1509,-208 1385,-208"/>
</g>
<g id="clust22" class="cluster">
<title>cluster_AppModule_providers</title>
<polygon fill="none" stroke="black" points="2734,-78 2734,-130 2884,-130 2884,-78 2734,-78"/>
</g>
<g id="clust2" class="cluster">
<title>cluster_AppModule_declarations</title>
<polygon fill="none" stroke="black" points="16,-78 16,-130 2726,-130 2726,-78 16,-78"/>
</g>
<!-- AnimalComponent -->
<g id="node1" class="node">
<title>AnimalComponent</title>
<polygon fill="#ffffb3" stroke="black" points="2717.83,-122 2594.17,-122 2594.17,-86 2717.83,-86 2717.83,-122"/>
<text text-anchor="middle" x="2656" y="-99.8" font-family="Times,serif" font-size="14.00">AnimalComponent</text>
</g>
<!-- AppModule -->
<g id="node17" class="node">
<title>AppModule</title>
<polygon fill="#8dd3c7" stroke="black" points="1488.66,-187 1485.66,-191 1464.66,-191 1461.66,-187 1405.34,-187 1405.34,-151 1488.66,-151 1488.66,-187"/>
<text text-anchor="middle" x="1447" y="-164.8" font-family="Times,serif" font-size="14.00">AppModule</text>
</g>
<!-- AnimalComponent&#45;&gt;AppModule -->
<g id="edge1" class="edge">
<title>AnimalComponent&#45;&gt;AppModule</title>
<path fill="none" stroke="black" d="M2656,-122.28C2656,-143.32 2656,-175 2656,-175 2656,-175 1498.97,-175 1498.97,-175"/>
<polygon fill="black" stroke="black" points="1498.97,-171.5 1488.97,-175 1498.97,-178.5 1498.97,-171.5"/>
</g>
<!-- AppComponent -->
<g id="node2" class="node">
<title>AppComponent</title>
<polygon fill="#ffffb3" stroke="black" points="2576.94,-122 2471.06,-122 2471.06,-86 2576.94,-86 2576.94,-122"/>
<text text-anchor="middle" x="2524" y="-99.8" font-family="Times,serif" font-size="14.00">AppComponent</text>
</g>
<!-- AppComponent&#45;&gt;AppModule -->
<g id="edge2" class="edge">
<title>AppComponent&#45;&gt;AppModule</title>
<path fill="none" stroke="black" d="M2524,-122.31C2524,-142.15 2524,-171 2524,-171 2524,-171 1498.89,-171 1498.89,-171"/>
<polygon fill="black" stroke="black" points="1498.89,-167.5 1488.89,-171 1498.89,-174.5 1498.89,-167.5"/>
</g>
<!-- FormCrearAnimalComponent -->
<g id="node3" class="node">
<title>FormCrearAnimalComponent</title>
<polygon fill="#ffffb3" stroke="black" points="2453.25,-122 2268.75,-122 2268.75,-86 2453.25,-86 2453.25,-122"/>
<text text-anchor="middle" x="2361" y="-99.8" font-family="Times,serif" font-size="14.00">FormCrearAnimalComponent</text>
</g>
<!-- FormCrearAnimalComponent&#45;&gt;AppModule -->
<g id="edge3" class="edge">
<title>FormCrearAnimalComponent&#45;&gt;AppModule</title>
<path fill="none" stroke="black" d="M2361,-122.22C2361,-140.83 2361,-167 2361,-167 2361,-167 1498.95,-167 1498.95,-167"/>
<polygon fill="black" stroke="black" points="1498.95,-163.5 1488.95,-167 1498.95,-170.5 1498.95,-163.5"/>
</g>
<!-- FormEditarAnimalComponent -->
<g id="node4" class="node">
<title>FormEditarAnimalComponent</title>
<polygon fill="#ffffb3" stroke="black" points="2250.87,-122 2063.13,-122 2063.13,-86 2250.87,-86 2250.87,-122"/>
<text text-anchor="middle" x="2157" y="-99.8" font-family="Times,serif" font-size="14.00">FormEditarAnimalComponent</text>
</g>
<!-- FormEditarAnimalComponent&#45;&gt;AppModule -->
<g id="edge4" class="edge">
<title>FormEditarAnimalComponent&#45;&gt;AppModule</title>
<path fill="none" stroke="black" d="M2157,-122.02C2157,-139.37 2157,-163 2157,-163 2157,-163 1498.76,-163 1498.76,-163"/>
<polygon fill="black" stroke="black" points="1498.76,-159.5 1488.76,-163 1498.76,-166.5 1498.76,-159.5"/>
</g>
<!-- FormPerfilAsociacionComponent -->
<g id="node5" class="node">
<title>FormPerfilAsociacionComponent</title>
<polygon fill="#ffffb3" stroke="black" points="2044.74,-122 1839.26,-122 1839.26,-86 2044.74,-86 2044.74,-122"/>
<text text-anchor="middle" x="1942" y="-99.8" font-family="Times,serif" font-size="14.00">FormPerfilAsociacionComponent</text>
</g>
<!-- FormPerfilAsociacionComponent&#45;&gt;AppModule -->
<g id="edge5" class="edge">
<title>FormPerfilAsociacionComponent&#45;&gt;AppModule</title>
<path fill="none" stroke="black" d="M1942,-122.01C1942,-138.05 1942,-159 1942,-159 1942,-159 1498.78,-159 1498.78,-159"/>
<polygon fill="black" stroke="black" points="1498.78,-155.5 1488.78,-159 1498.78,-162.5 1498.78,-155.5"/>
</g>
<!-- FormPerfilPersonaComponent -->
<g id="node6" class="node">
<title>FormPerfilPersonaComponent</title>
<polygon fill="#ffffb3" stroke="black" points="1821.58,-122 1634.42,-122 1634.42,-86 1821.58,-86 1821.58,-122"/>
<text text-anchor="middle" x="1728" y="-99.8" font-family="Times,serif" font-size="14.00">FormPerfilPersonaComponent</text>
</g>
<!-- FormPerfilPersonaComponent&#45;&gt;AppModule -->
<g id="edge6" class="edge">
<title>FormPerfilPersonaComponent&#45;&gt;AppModule</title>
<path fill="none" stroke="black" d="M1728,-122.12C1728,-136.78 1728,-155 1728,-155 1728,-155 1498.77,-155 1498.77,-155"/>
<polygon fill="black" stroke="black" points="1498.77,-151.5 1488.77,-155 1498.77,-158.5 1498.77,-151.5"/>
</g>
<!-- ListAssociationsComponent -->
<g id="node7" class="node">
<title>ListAssociationsComponent</title>
<polygon fill="#ffffb3" stroke="black" points="1616.15,-122 1441.85,-122 1441.85,-86 1616.15,-86 1616.15,-122"/>
<text text-anchor="middle" x="1529" y="-99.8" font-family="Times,serif" font-size="14.00">ListAssociationsComponent</text>
</g>
<!-- ListAssociationsComponent&#45;&gt;AppModule -->
<g id="edge7" class="edge">
<title>ListAssociationsComponent&#45;&gt;AppModule</title>
<path fill="none" stroke="black" d="M1465.25,-122.11C1465.25,-122.11 1465.25,-140.99 1465.25,-140.99"/>
<polygon fill="black" stroke="black" points="1461.75,-140.99 1465.25,-150.99 1468.75,-140.99 1461.75,-140.99"/>
</g>
<!-- LoginComponent -->
<g id="node8" class="node">
<title>LoginComponent</title>
<polygon fill="#ffffb3" stroke="black" points="1423.28,-122 1308.72,-122 1308.72,-86 1423.28,-86 1423.28,-122"/>
<text text-anchor="middle" x="1366" y="-99.8" font-family="Times,serif" font-size="14.00">LoginComponent</text>
</g>
<!-- LoginComponent&#45;&gt;AppModule -->
<g id="edge8" class="edge">
<title>LoginComponent&#45;&gt;AppModule</title>
<path fill="none" stroke="black" d="M1414.28,-122.11C1414.28,-122.11 1414.28,-140.99 1414.28,-140.99"/>
<polygon fill="black" stroke="black" points="1410.78,-140.99 1414.28,-150.99 1417.78,-140.99 1410.78,-140.99"/>
</g>
<!-- NavbarComponent -->
<g id="node9" class="node">
<title>NavbarComponent</title>
<polygon fill="#ffffb3" stroke="black" points="1290.03,-122 1167.97,-122 1167.97,-86 1290.03,-86 1290.03,-122"/>
<text text-anchor="middle" x="1229" y="-99.8" font-family="Times,serif" font-size="14.00">NavbarComponent</text>
</g>
<!-- NavbarComponent&#45;&gt;AppModule -->
<g id="edge9" class="edge">
<title>NavbarComponent&#45;&gt;AppModule</title>
<path fill="none" stroke="black" d="M1229,-122.12C1229,-136.78 1229,-155 1229,-155 1229,-155 1395.23,-155 1395.23,-155"/>
<polygon fill="black" stroke="black" points="1395.23,-158.5 1405.23,-155 1395.23,-151.5 1395.23,-158.5"/>
</g>
<!-- PaginacionComponent -->
<g id="node10" class="node">
<title>PaginacionComponent</title>
<polygon fill="#ffffb3" stroke="black" points="1149.54,-122 1006.46,-122 1006.46,-86 1149.54,-86 1149.54,-122"/>
<text text-anchor="middle" x="1078" y="-99.8" font-family="Times,serif" font-size="14.00">PaginacionComponent</text>
</g>
<!-- PaginacionComponent&#45;&gt;AppModule -->
<g id="edge10" class="edge">
<title>PaginacionComponent&#45;&gt;AppModule</title>
<path fill="none" stroke="black" d="M1078,-122.01C1078,-138.05 1078,-159 1078,-159 1078,-159 1395.03,-159 1395.03,-159"/>
<polygon fill="black" stroke="black" points="1395.03,-162.5 1405.03,-159 1395.03,-155.5 1395.03,-162.5"/>
</g>
<!-- PerfilAnimalComponent -->
<g id="node11" class="node">
<title>PerfilAnimalComponent</title>
<polygon fill="#ffffb3" stroke="black" points="988.43,-122 833.57,-122 833.57,-86 988.43,-86 988.43,-122"/>
<text text-anchor="middle" x="911" y="-99.8" font-family="Times,serif" font-size="14.00">PerfilAnimalComponent</text>
</g>
<!-- PerfilAnimalComponent&#45;&gt;AppModule -->
<g id="edge11" class="edge">
<title>PerfilAnimalComponent&#45;&gt;AppModule</title>
<path fill="none" stroke="black" d="M911,-122.02C911,-139.37 911,-163 911,-163 911,-163 1394.94,-163 1394.94,-163"/>
<polygon fill="black" stroke="black" points="1394.94,-166.5 1404.94,-163 1394.94,-159.5 1394.94,-166.5"/>
</g>
<!-- PerfilComponent -->
<g id="node12" class="node">
<title>PerfilComponent</title>
<polygon fill="#ffffb3" stroke="black" points="816.43,-122 703.57,-122 703.57,-86 816.43,-86 816.43,-122"/>
<text text-anchor="middle" x="760" y="-99.8" font-family="Times,serif" font-size="14.00">PerfilComponent</text>
</g>
<!-- PerfilComponent&#45;&gt;AppModule -->
<g id="edge12" class="edge">
<title>PerfilComponent&#45;&gt;AppModule</title>
<path fill="none" stroke="black" d="M760,-122.22C760,-140.83 760,-167 760,-167 760,-167 1395.32,-167 1395.32,-167"/>
<polygon fill="black" stroke="black" points="1395.32,-170.5 1405.32,-167 1395.32,-163.5 1395.32,-170.5"/>
</g>
<!-- RazaComponent -->
<g id="node13" class="node">
<title>RazaComponent</title>
<polygon fill="#ffffb3" stroke="black" points="685.81,-122 576.19,-122 576.19,-86 685.81,-86 685.81,-122"/>
<text text-anchor="middle" x="631" y="-99.8" font-family="Times,serif" font-size="14.00">RazaComponent</text>
</g>
<!-- RazaComponent&#45;&gt;AppModule -->
<g id="edge13" class="edge">
<title>RazaComponent&#45;&gt;AppModule</title>
<path fill="none" stroke="black" d="M631,-122.31C631,-142.15 631,-171 631,-171 631,-171 1395.13,-171 1395.13,-171"/>
<polygon fill="black" stroke="black" points="1395.13,-174.5 1405.13,-171 1395.13,-167.5 1395.13,-174.5"/>
</g>
<!-- RegisterAssociationComponent -->
<g id="node14" class="node">
<title>RegisterAssociationComponent</title>
<polygon fill="#ffffb3" stroke="black" points="558.08,-122 363.92,-122 363.92,-86 558.08,-86 558.08,-122"/>
<text text-anchor="middle" x="461" y="-99.8" font-family="Times,serif" font-size="14.00">RegisterAssociationComponent</text>
</g>
<!-- RegisterAssociationComponent&#45;&gt;AppModule -->
<g id="edge14" class="edge">
<title>RegisterAssociationComponent&#45;&gt;AppModule</title>
<path fill="none" stroke="black" d="M461,-122.28C461,-143.32 461,-175 461,-175 461,-175 1395.26,-175 1395.26,-175"/>
<polygon fill="black" stroke="black" points="1395.26,-178.5 1405.26,-175 1395.26,-171.5 1395.26,-178.5"/>
</g>
<!-- RegisterUserComponent -->
<g id="node15" class="node">
<title>RegisterUserComponent</title>
<polygon fill="#ffffb3" stroke="black" points="346.41,-122 191.59,-122 191.59,-86 346.41,-86 346.41,-122"/>
<text text-anchor="middle" x="269" y="-99.8" font-family="Times,serif" font-size="14.00">RegisterUserComponent</text>
</g>
<!-- RegisterUserComponent&#45;&gt;AppModule -->
<g id="edge15" class="edge">
<title>RegisterUserComponent&#45;&gt;AppModule</title>
<path fill="none" stroke="black" d="M269,-122.16C269,-144.35 269,-179 269,-179 269,-179 1395.07,-179 1395.07,-179"/>
<polygon fill="black" stroke="black" points="1395.07,-182.5 1405.07,-179 1395.07,-175.5 1395.07,-182.5"/>
</g>
<!-- TipoAnimalComponent -->
<g id="node16" class="node">
<title>TipoAnimalComponent</title>
<polygon fill="#ffffb3" stroke="black" points="173.77,-122 24.23,-122 24.23,-86 173.77,-86 173.77,-122"/>
<text text-anchor="middle" x="99" y="-99.8" font-family="Times,serif" font-size="14.00">TipoAnimalComponent</text>
</g>
<!-- TipoAnimalComponent&#45;&gt;AppModule -->
<g id="edge16" class="edge">
<title>TipoAnimalComponent&#45;&gt;AppModule</title>
<path fill="none" stroke="black" d="M99,-122.32C99,-145.66 99,-183 99,-183 99,-183 1395.18,-183 1395.18,-183"/>
<polygon fill="black" stroke="black" points="1395.18,-186.5 1405.18,-183 1395.18,-179.5 1395.18,-186.5"/>
</g>
<!-- AppComponent  -->
<g id="node19" class="node">
<title>AppComponent </title>
<polygon fill="#80b1d3" stroke="black" points="1501.44,-252 1392.56,-252 1392.56,-216 1501.44,-216 1501.44,-252"/>
<text text-anchor="middle" x="1447" y="-229.8" font-family="Times,serif" font-size="14.00">AppComponent </text>
</g>
<!-- AppModule&#45;&gt;AppComponent  -->
<g id="edge18" class="edge">
<title>AppModule&#45;&gt;AppComponent </title>
<path fill="none" stroke="black" stroke-dasharray="1,5" d="M1447,-187.11C1447,-187.11 1447,-205.99 1447,-205.99"/>
<polygon fill="black" stroke="black" points="1443.5,-205.99 1447,-215.99 1450.5,-205.99 1443.5,-205.99"/>
</g>
<!-- AppRoutingModule -->
<g id="node18" class="node">
<title>AppRoutingModule</title>
<polygon fill="#8dd3c7" stroke="black" points="3028.27,-122 3025.27,-126 3004.27,-126 3001.27,-122 2899.73,-122 2899.73,-86 3028.27,-86 3028.27,-122"/>
<text text-anchor="middle" x="2964" y="-99.8" font-family="Times,serif" font-size="14.00">AppRoutingModule</text>
</g>
<!-- AppRoutingModule&#45;&gt;AppModule -->
<g id="edge17" class="edge">
<title>AppRoutingModule&#45;&gt;AppModule</title>
<path fill="none" stroke="black" d="M2964,-122.32C2964,-145.66 2964,-183 2964,-183 2964,-183 1498.76,-183 1498.76,-183"/>
<polygon fill="black" stroke="black" points="1498.76,-179.5 1488.76,-183 1498.76,-186.5 1498.76,-179.5"/>
</g>
<!-- ConfigService -->
<g id="node20" class="node">
<title>ConfigService</title>
<ellipse fill="#fdb462" stroke="black" cx="2809" cy="-104" rx="66.63" ry="18"/>
<text text-anchor="middle" x="2809" y="-99.8" font-family="Times,serif" font-size="14.00">ConfigService</text>
</g>
<!-- ConfigService&#45;&gt;AppModule -->
<g id="edge19" class="edge">
<title>ConfigService&#45;&gt;AppModule</title>
<path fill="none" stroke="black" d="M2809,-122.16C2809,-144.35 2809,-179 2809,-179 2809,-179 1498.88,-179 1498.88,-179"/>
<polygon fill="black" stroke="black" points="1498.88,-175.5 1488.88,-179 1498.88,-182.5 1498.88,-175.5"/>
</g>
</g>
</svg>
