<?xml version="1.0" encoding="UTF-8" standalone="no"?>
<!DOCTYPE svg PUBLIC "-//W3C//DTD SVG 1.1//EN"
 "http://www.w3.org/Graphics/SVG/1.1/DTD/svg11.dtd">
<!-- Generated by graphviz version 2.47.0 (20210316.0004)
 -->
<!-- Title: dependencies Pages: 1 -->
<svg width="6340pt" height="284pt"
 viewBox="0.00 0.00 6340.00 284.00" xmlns="http://www.w3.org/2000/svg" xmlns:xlink="http://www.w3.org/1999/xlink">
<g id="graph0" class="graph" transform="scale(1 1) rotate(0) translate(4 280)">
<title>dependencies</title>
<polygon fill="white" stroke="transparent" points="-4,4 -4,-280 6336,-280 6336,4 -4,4"/>
<text text-anchor="start" x="3145.01" y="-42.4" font-family="Times-12" font-weight="bold" font-size="14.00">Legend</text>
<polygon fill="#ffffb3" stroke="transparent" points="2932,-10 2932,-30 2952,-30 2952,-10 2932,-10"/>
<text text-anchor="start" x="2955.63" y="-15.4" font-family="Times-12" font-size="14.00"> &#160;Declarations</text>
<polygon fill="#8dd3c7" stroke="transparent" points="3045,-10 3045,-30 3065,-30 3065,-10 3045,-10"/>
<text text-anchor="start" x="3068.73" y="-15.4" font-family="Times-12" font-size="14.00"> &#160;Module</text>
<polygon fill="#80b1d3" stroke="transparent" points="3131,-10 3131,-30 3151,-30 3151,-10 3131,-10"/>
<text text-anchor="start" x="3154.78" y="-15.4" font-family="Times-12" font-size="14.00"> &#160;Bootstrap</text>
<polygon fill="#fdb462" stroke="transparent" points="3228,-10 3228,-30 3248,-30 3248,-10 3228,-10"/>
<text text-anchor="start" x="3251.67" y="-15.4" font-family="Times-12" font-size="14.00"> &#160;Providers</text>
<polygon fill="#fb8072" stroke="transparent" points="3324,-10 3324,-30 3344,-30 3344,-10 3324,-10"/>
<text text-anchor="start" x="3347.73" y="-15.4" font-family="Times-12" font-size="14.00"> &#160;Exports</text>
<g id="clust1" class="cluster">
<title>cluster_AppModule</title>
<polygon fill="none" stroke="black" stroke-dasharray="1,5" points="8,-70 8,-268 6324,-268 6324,-70 8,-70"/>
</g>
<g id="clust2" class="cluster">
<title>cluster_AppModule_declarations</title>
<polygon fill="none" stroke="black" points="514,-78 514,-130 6316,-130 6316,-78 514,-78"/>
</g>
<g id="clust34" class="cluster">
<title>cluster_AppModule_imports</title>
<polygon fill="none" stroke="black" points="362,-78 362,-130 506,-130 506,-78 362,-78"/>
</g>
<g id="clust36" class="cluster">
<title>cluster_AppModule_bootstrap</title>
<polygon fill="none" stroke="black" points="2890,-208 2890,-260 3014,-260 3014,-208 2890,-208"/>
</g>
<g id="clust37" class="cluster">
<title>cluster_AppModule_providers</title>
<polygon fill="none" stroke="black" points="16,-78 16,-130 354,-130 354,-78 16,-78"/>
</g>
<!-- AnimalComponent -->
<g id="node1" class="node">
<title>AnimalComponent</title>
<polygon fill="#ffffb3" stroke="black" points="6307.83,-122 6184.17,-122 6184.17,-86 6307.83,-86 6307.83,-122"/>
<text text-anchor="middle" x="6246" y="-99.8" font-family="Times,serif" font-size="14.00">AnimalComponent</text>
</g>
<!-- AppModule -->
<g id="node32" class="node">
<title>AppModule</title>
<polygon fill="#8dd3c7" stroke="black" points="2993.66,-187 2990.66,-191 2969.66,-191 2966.66,-187 2910.34,-187 2910.34,-151 2993.66,-151 2993.66,-187"/>
<text text-anchor="middle" x="2952" y="-164.8" font-family="Times,serif" font-size="14.00">AppModule</text>
</g>
<!-- AnimalComponent&#45;&gt;AppModule -->
<g id="edge1" class="edge">
<title>AnimalComponent&#45;&gt;AppModule</title>
<path fill="none" stroke="black" d="M6246,-122.38C6246,-146.28 6246,-185 6246,-185 6246,-185 3003.95,-185 3003.95,-185"/>
<polygon fill="black" stroke="black" points="3003.95,-181.5 2993.95,-185 3003.95,-188.5 3003.95,-181.5"/>
</g>
<!-- AnimalesAsociacionComponent -->
<g id="node2" class="node">
<title>AnimalesAsociacionComponent</title>
<polygon fill="#ffffb3" stroke="black" points="6165.96,-122 5968.04,-122 5968.04,-86 6165.96,-86 6165.96,-122"/>
<text text-anchor="middle" x="6067" y="-99.8" font-family="Times,serif" font-size="14.00">AnimalesAsociacionComponent</text>
</g>
<!-- AnimalesAsociacionComponent&#45;&gt;AppModule -->
<g id="edge2" class="edge">
<title>AnimalesAsociacionComponent&#45;&gt;AppModule</title>
<path fill="none" stroke="black" d="M6067,-122.32C6067,-145.66 6067,-183 6067,-183 6067,-183 3003.68,-183 3003.68,-183"/>
<polygon fill="black" stroke="black" points="3003.68,-179.5 2993.68,-183 3003.68,-186.5 3003.68,-179.5"/>
</g>
<!-- AppComponent -->
<g id="node3" class="node">
<title>AppComponent</title>
<polygon fill="#ffffb3" stroke="black" points="5949.94,-122 5844.06,-122 5844.06,-86 5949.94,-86 5949.94,-122"/>
<text text-anchor="middle" x="5897" y="-99.8" font-family="Times,serif" font-size="14.00">AppComponent</text>
</g>
<!-- AppComponent&#45;&gt;AppModule -->
<g id="edge3" class="edge">
<title>AppComponent&#45;&gt;AppModule</title>
<path fill="none" stroke="black" d="M5897,-122.25C5897,-145.02 5897,-181 5897,-181 5897,-181 3003.91,-181 3003.91,-181"/>
<polygon fill="black" stroke="black" points="3003.91,-177.5 2993.91,-181 3003.91,-184.5 3003.91,-177.5"/>
</g>
<!-- ArchivosAsociacionComponent -->
<g id="node4" class="node">
<title>ArchivosAsociacionComponent</title>
<polygon fill="#ffffb3" stroke="black" points="5825.63,-122 5630.37,-122 5630.37,-86 5825.63,-86 5825.63,-122"/>
<text text-anchor="middle" x="5728" y="-99.8" font-family="Times,serif" font-size="14.00">ArchivosAsociacionComponent</text>
</g>
<!-- ArchivosAsociacionComponent&#45;&gt;AppModule -->
<g id="edge4" class="edge">
<title>ArchivosAsociacionComponent&#45;&gt;AppModule</title>
<path fill="none" stroke="black" d="M5728,-122.16C5728,-144.35 5728,-179 5728,-179 5728,-179 3003.67,-179 3003.67,-179"/>
<polygon fill="black" stroke="black" points="3003.67,-175.5 2993.67,-179 3003.67,-182.5 3003.67,-175.5"/>
</g>
<!-- CookiesComponent -->
<g id="node5" class="node">
<title>CookiesComponent</title>
<polygon fill="#ffffb3" stroke="black" points="5612.72,-122 5485.28,-122 5485.28,-86 5612.72,-86 5612.72,-122"/>
<text text-anchor="middle" x="5549" y="-99.8" font-family="Times,serif" font-size="14.00">CookiesComponent</text>
</g>
<!-- CookiesComponent&#45;&gt;AppModule -->
<g id="edge5" class="edge">
<title>CookiesComponent&#45;&gt;AppModule</title>
<path fill="none" stroke="black" d="M5549,-122.04C5549,-143.66 5549,-177 5549,-177 5549,-177 3003.84,-177 3003.84,-177"/>
<polygon fill="black" stroke="black" points="3003.84,-173.5 2993.84,-177 3003.84,-180.5 3003.84,-173.5"/>
</g>
<!-- DocumentosAnimalComponent -->
<g id="node6" class="node">
<title>DocumentosAnimalComponent</title>
<polygon fill="#ffffb3" stroke="black" points="5467.09,-122 5272.91,-122 5272.91,-86 5467.09,-86 5467.09,-122"/>
<text text-anchor="middle" x="5370" y="-99.8" font-family="Times,serif" font-size="14.00">DocumentosAnimalComponent</text>
</g>
<!-- DocumentosAnimalComponent&#45;&gt;AppModule -->
<g id="edge6" class="edge">
<title>DocumentosAnimalComponent&#45;&gt;AppModule</title>
<path fill="none" stroke="black" d="M5370,-122.28C5370,-143.32 5370,-175 5370,-175 5370,-175 3003.71,-175 3003.71,-175"/>
<polygon fill="black" stroke="black" points="3003.71,-171.5 2993.71,-175 3003.71,-178.5 3003.71,-171.5"/>
</g>
<!-- Error404Component -->
<g id="node7" class="node">
<title>Error404Component</title>
<polygon fill="#ffffb3" stroke="black" points="5254.87,-122 5123.13,-122 5123.13,-86 5254.87,-86 5254.87,-122"/>
<text text-anchor="middle" x="5189" y="-99.8" font-family="Times,serif" font-size="14.00">Error404Component</text>
</g>
<!-- Error404Component&#45;&gt;AppModule -->
<g id="edge7" class="edge">
<title>Error404Component&#45;&gt;AppModule</title>
<path fill="none" stroke="black" d="M5189,-122.13C5189,-142.57 5189,-173 5189,-173 5189,-173 3003.71,-173 3003.71,-173"/>
<polygon fill="black" stroke="black" points="3003.71,-169.5 2993.71,-173 3003.71,-176.5 3003.71,-169.5"/>
</g>
<!-- FooterComponent -->
<g id="node8" class="node">
<title>FooterComponent</title>
<polygon fill="#ffffb3" stroke="black" points="5104.88,-122 4987.12,-122 4987.12,-86 5104.88,-86 5104.88,-122"/>
<text text-anchor="middle" x="5046" y="-99.8" font-family="Times,serif" font-size="14.00">FooterComponent</text>
</g>
<!-- FooterComponent&#45;&gt;AppModule -->
<g id="edge8" class="edge">
<title>FooterComponent&#45;&gt;AppModule</title>
<path fill="none" stroke="black" d="M5046,-122.31C5046,-142.15 5046,-171 5046,-171 5046,-171 3003.83,-171 3003.83,-171"/>
<polygon fill="black" stroke="black" points="3003.83,-167.5 2993.83,-171 3003.83,-174.5 3003.83,-167.5"/>
</g>
<!-- FormCrearAnimalComponent -->
<g id="node9" class="node">
<title>FormCrearAnimalComponent</title>
<polygon fill="#ffffb3" stroke="black" points="4969.25,-122 4784.75,-122 4784.75,-86 4969.25,-86 4969.25,-122"/>
<text text-anchor="middle" x="4877" y="-99.8" font-family="Times,serif" font-size="14.00">FormCrearAnimalComponent</text>
</g>
<!-- FormCrearAnimalComponent&#45;&gt;AppModule -->
<g id="edge9" class="edge">
<title>FormCrearAnimalComponent&#45;&gt;AppModule</title>
<path fill="none" stroke="black" d="M4877,-122.17C4877,-141.09 4877,-168 4877,-168 4877,-168 3004,-168 3004,-168"/>
<polygon fill="black" stroke="black" points="3004,-164.5 2994,-168 3004,-171.5 3004,-164.5"/>
</g>
<!-- FormEditarAnimalComponent -->
<g id="node10" class="node">
<title>FormEditarAnimalComponent</title>
<polygon fill="#ffffb3" stroke="black" points="4766.87,-122 4579.13,-122 4579.13,-86 4766.87,-86 4766.87,-122"/>
<text text-anchor="middle" x="4673" y="-99.8" font-family="Times,serif" font-size="14.00">FormEditarAnimalComponent</text>
</g>
<!-- FormEditarAnimalComponent&#45;&gt;AppModule -->
<g id="edge10" class="edge">
<title>FormEditarAnimalComponent&#45;&gt;AppModule</title>
<path fill="none" stroke="black" d="M4673,-122.27C4673,-140.56 4673,-166 4673,-166 4673,-166 3003.69,-166 3003.69,-166"/>
<polygon fill="black" stroke="black" points="3003.69,-162.5 2993.69,-166 3003.69,-169.5 3003.69,-162.5"/>
</g>
<!-- FormEditarArchivoAsocComponent -->
<g id="node11" class="node">
<title>FormEditarArchivoAsocComponent</title>
<polygon fill="#ffffb3" stroke="black" points="4561.01,-122 4340.99,-122 4340.99,-86 4561.01,-86 4561.01,-122"/>
<text text-anchor="middle" x="4451" y="-99.8" font-family="Times,serif" font-size="14.00">FormEditarArchivoAsocComponent</text>
</g>
<!-- FormEditarArchivoAsocComponent&#45;&gt;AppModule -->
<g id="edge11" class="edge">
<title>FormEditarArchivoAsocComponent&#45;&gt;AppModule</title>
<path fill="none" stroke="black" d="M4451,-122C4451,-139.68 4451,-164 4451,-164 4451,-164 3004.05,-164 3004.05,-164"/>
<polygon fill="black" stroke="black" points="3004.05,-160.5 2994.05,-164 3004.05,-167.5 3004.05,-160.5"/>
</g>
<!-- FormEditarDocumentoAnimalComponent -->
<g id="node12" class="node">
<title>FormEditarDocumentoAnimalComponent</title>
<polygon fill="#ffffb3" stroke="black" points="4322.69,-122 4069.31,-122 4069.31,-86 4322.69,-86 4322.69,-122"/>
<text text-anchor="middle" x="4196" y="-99.8" font-family="Times,serif" font-size="14.00">FormEditarDocumentoAnimalComponent</text>
</g>
<!-- FormEditarDocumentoAnimalComponent&#45;&gt;AppModule -->
<g id="edge12" class="edge">
<title>FormEditarDocumentoAnimalComponent&#45;&gt;AppModule</title>
<path fill="none" stroke="black" d="M4196,-122.03C4196,-139.06 4196,-162 4196,-162 4196,-162 3003.75,-162 3003.75,-162"/>
<polygon fill="black" stroke="black" points="3003.75,-158.5 2993.75,-162 3003.75,-165.5 3003.75,-158.5"/>
</g>
<!-- FormPerfilAsociacionComponent -->
<g id="node13" class="node">
<title>FormPerfilAsociacionComponent</title>
<polygon fill="#ffffb3" stroke="black" points="4051.74,-122 3846.26,-122 3846.26,-86 4051.74,-86 4051.74,-122"/>
<text text-anchor="middle" x="3949" y="-99.8" font-family="Times,serif" font-size="14.00">FormPerfilAsociacionComponent</text>
</g>
<!-- FormPerfilAsociacionComponent&#45;&gt;AppModule -->
<g id="edge13" class="edge">
<title>FormPerfilAsociacionComponent&#45;&gt;AppModule</title>
<path fill="none" stroke="black" d="M3949,-122.03C3949,-138.4 3949,-160 3949,-160 3949,-160 3003.89,-160 3003.89,-160"/>
<polygon fill="black" stroke="black" points="3003.89,-156.5 2993.89,-160 3003.89,-163.5 3003.89,-156.5"/>
</g>
<!-- FormPerfilPersonaComponent -->
<g id="node14" class="node">
<title>FormPerfilPersonaComponent</title>
<polygon fill="#ffffb3" stroke="black" points="3828.58,-122 3641.42,-122 3641.42,-86 3828.58,-86 3828.58,-122"/>
<text text-anchor="middle" x="3735" y="-99.8" font-family="Times,serif" font-size="14.00">FormPerfilPersonaComponent</text>
</g>
<!-- FormPerfilPersonaComponent&#45;&gt;AppModule -->
<g id="edge14" class="edge">
<title>FormPerfilPersonaComponent&#45;&gt;AppModule</title>
<path fill="none" stroke="black" d="M3735,-122.28C3735,-137.95 3735,-158 3735,-158 3735,-158 3003.82,-158 3003.82,-158"/>
<polygon fill="black" stroke="black" points="3003.82,-154.5 2993.82,-158 3003.82,-161.5 3003.82,-154.5"/>
</g>
<!-- FormSubirArchivoAsocComponent -->
<g id="node15" class="node">
<title>FormSubirArchivoAsocComponent</title>
<polygon fill="#ffffb3" stroke="black" points="3623.14,-122 3406.86,-122 3406.86,-86 3623.14,-86 3623.14,-122"/>
<text text-anchor="middle" x="3515" y="-99.8" font-family="Times,serif" font-size="14.00">FormSubirArchivoAsocComponent</text>
</g>
<!-- FormSubirArchivoAsocComponent&#45;&gt;AppModule -->
<g id="edge15" class="edge">
<title>FormSubirArchivoAsocComponent&#45;&gt;AppModule</title>
<path fill="none" stroke="black" d="M3515,-122.19C3515,-137.18 3515,-156 3515,-156 3515,-156 3003.86,-156 3003.86,-156"/>
<polygon fill="black" stroke="black" points="3003.86,-152.5 2993.86,-156 3003.86,-159.5 3003.86,-152.5"/>
</g>
<!-- FormSubirDocumentoAnimalComponent -->
<g id="node16" class="node">
<title>FormSubirDocumentoAnimalComponent</title>
<polygon fill="#ffffb3" stroke="black" points="3388.81,-122 3139.19,-122 3139.19,-86 3388.81,-86 3388.81,-122"/>
<text text-anchor="middle" x="3264" y="-99.8" font-family="Times,serif" font-size="14.00">FormSubirDocumentoAnimalComponent</text>
</g>
<!-- FormSubirDocumentoAnimalComponent&#45;&gt;AppModule -->
<g id="edge16" class="edge">
<title>FormSubirDocumentoAnimalComponent&#45;&gt;AppModule</title>
<path fill="none" stroke="black" d="M3264,-122.05C3264,-136.37 3264,-154 3264,-154 3264,-154 3003.75,-154 3003.75,-154"/>
<polygon fill="black" stroke="black" points="3003.75,-150.5 2993.75,-154 3003.75,-157.5 3003.75,-150.5"/>
</g>
<!-- LandingPageComponent -->
<g id="node17" class="node">
<title>LandingPageComponent</title>
<polygon fill="#ffffb3" stroke="black" points="3121.7,-122 2966.3,-122 2966.3,-86 3121.7,-86 3121.7,-122"/>
<text text-anchor="middle" x="3044" y="-99.8" font-family="Times,serif" font-size="14.00">LandingPageComponent</text>
</g>
<!-- LandingPageComponent&#45;&gt;AppModule -->
<g id="edge17" class="edge">
<title>LandingPageComponent&#45;&gt;AppModule</title>
<path fill="none" stroke="black" d="M2980.11,-122.11C2980.11,-122.11 2980.11,-140.99 2980.11,-140.99"/>
<polygon fill="black" stroke="black" points="2976.61,-140.99 2980.11,-150.99 2983.61,-140.99 2976.61,-140.99"/>
</g>
<!-- ListAssociationsComponent -->
<g id="node18" class="node">
<title>ListAssociationsComponent</title>
<polygon fill="#ffffb3" stroke="black" points="2948.15,-122 2773.85,-122 2773.85,-86 2948.15,-86 2948.15,-122"/>
<text text-anchor="middle" x="2861" y="-99.8" font-family="Times,serif" font-size="14.00">ListAssociationsComponent</text>
</g>
<!-- ListAssociationsComponent&#45;&gt;AppModule -->
<g id="edge18" class="edge">
<title>ListAssociationsComponent&#45;&gt;AppModule</title>
<path fill="none" stroke="black" d="M2929.25,-122.11C2929.25,-122.11 2929.25,-140.99 2929.25,-140.99"/>
<polygon fill="black" stroke="black" points="2925.75,-140.99 2929.25,-150.99 2932.75,-140.99 2925.75,-140.99"/>
</g>
<!-- LoginComponent -->
<g id="node19" class="node">
<title>LoginComponent</title>
<polygon fill="#ffffb3" stroke="black" points="2755.28,-122 2640.72,-122 2640.72,-86 2755.28,-86 2755.28,-122"/>
<text text-anchor="middle" x="2698" y="-99.8" font-family="Times,serif" font-size="14.00">LoginComponent</text>
</g>
<!-- LoginComponent&#45;&gt;AppModule -->
<g id="edge19" class="edge">
<title>LoginComponent&#45;&gt;AppModule</title>
<path fill="none" stroke="black" d="M2698,-122.05C2698,-136.37 2698,-154 2698,-154 2698,-154 2900.34,-154 2900.34,-154"/>
<polygon fill="black" stroke="black" points="2900.34,-157.5 2910.34,-154 2900.34,-150.5 2900.34,-157.5"/>
</g>
<!-- NavbarComponent -->
<g id="node20" class="node">
<title>NavbarComponent</title>
<polygon fill="#ffffb3" stroke="black" points="2622.03,-122 2499.97,-122 2499.97,-86 2622.03,-86 2622.03,-122"/>
<text text-anchor="middle" x="2561" y="-99.8" font-family="Times,serif" font-size="14.00">NavbarComponent</text>
</g>
<!-- NavbarComponent&#45;&gt;AppModule -->
<g id="edge20" class="edge">
<title>NavbarComponent&#45;&gt;AppModule</title>
<path fill="none" stroke="black" d="M2561,-122.19C2561,-137.18 2561,-156 2561,-156 2561,-156 2900.16,-156 2900.16,-156"/>
<polygon fill="black" stroke="black" points="2900.16,-159.5 2910.16,-156 2900.16,-152.5 2900.16,-159.5"/>
</g>
<!-- PaginacionComponent -->
<g id="node21" class="node">
<title>PaginacionComponent</title>
<polygon fill="#ffffb3" stroke="black" points="2481.54,-122 2338.46,-122 2338.46,-86 2481.54,-86 2481.54,-122"/>
<text text-anchor="middle" x="2410" y="-99.8" font-family="Times,serif" font-size="14.00">PaginacionComponent</text>
</g>
<!-- PaginacionComponent&#45;&gt;AppModule -->
<g id="edge21" class="edge">
<title>PaginacionComponent&#45;&gt;AppModule</title>
<path fill="none" stroke="black" d="M2410,-122.28C2410,-137.95 2410,-158 2410,-158 2410,-158 2899.92,-158 2899.92,-158"/>
<polygon fill="black" stroke="black" points="2899.92,-161.5 2909.92,-158 2899.92,-154.5 2899.92,-161.5"/>
</g>
<!-- PerfilAnimalComponent -->
<g id="node22" class="node">
<title>PerfilAnimalComponent</title>
<polygon fill="#ffffb3" stroke="black" points="2320.43,-122 2165.57,-122 2165.57,-86 2320.43,-86 2320.43,-122"/>
<text text-anchor="middle" x="2243" y="-99.8" font-family="Times,serif" font-size="14.00">PerfilAnimalComponent</text>
</g>
<!-- PerfilAnimalComponent&#45;&gt;AppModule -->
<g id="edge22" class="edge">
<title>PerfilAnimalComponent&#45;&gt;AppModule</title>
<path fill="none" stroke="black" d="M2243,-122.03C2243,-138.4 2243,-160 2243,-160 2243,-160 2900.3,-160 2900.3,-160"/>
<polygon fill="black" stroke="black" points="2900.3,-163.5 2910.3,-160 2900.3,-156.5 2900.3,-163.5"/>
</g>
<!-- PerfilComponent -->
<g id="node23" class="node">
<title>PerfilComponent</title>
<polygon fill="#ffffb3" stroke="black" points="2148.43,-122 2035.57,-122 2035.57,-86 2148.43,-86 2148.43,-122"/>
<text text-anchor="middle" x="2092" y="-99.8" font-family="Times,serif" font-size="14.00">PerfilComponent</text>
</g>
<!-- PerfilComponent&#45;&gt;AppModule -->
<g id="edge23" class="edge">
<title>PerfilComponent&#45;&gt;AppModule</title>
<path fill="none" stroke="black" d="M2092,-122.03C2092,-139.06 2092,-162 2092,-162 2092,-162 2900.23,-162 2900.23,-162"/>
<polygon fill="black" stroke="black" points="2900.23,-165.5 2910.23,-162 2900.23,-158.5 2900.23,-165.5"/>
</g>
<!-- RazaComponent -->
<g id="node24" class="node">
<title>RazaComponent</title>
<polygon fill="#ffffb3" stroke="black" points="2017.81,-122 1908.19,-122 1908.19,-86 2017.81,-86 2017.81,-122"/>
<text text-anchor="middle" x="1963" y="-99.8" font-family="Times,serif" font-size="14.00">RazaComponent</text>
</g>
<!-- RazaComponent&#45;&gt;AppModule -->
<g id="edge24" class="edge">
<title>RazaComponent&#45;&gt;AppModule</title>
<path fill="none" stroke="black" d="M1963,-122C1963,-139.68 1963,-164 1963,-164 1963,-164 2900.14,-164 2900.14,-164"/>
<polygon fill="black" stroke="black" points="2900.14,-167.5 2910.14,-164 2900.14,-160.5 2900.14,-167.5"/>
</g>
<!-- RegisterAssociationComponent -->
<g id="node25" class="node">
<title>RegisterAssociationComponent</title>
<polygon fill="#ffffb3" stroke="black" points="1890.08,-122 1695.92,-122 1695.92,-86 1890.08,-86 1890.08,-122"/>
<text text-anchor="middle" x="1793" y="-99.8" font-family="Times,serif" font-size="14.00">RegisterAssociationComponent</text>
</g>
<!-- RegisterAssociationComponent&#45;&gt;AppModule -->
<g id="edge25" class="edge">
<title>RegisterAssociationComponent&#45;&gt;AppModule</title>
<path fill="none" stroke="black" d="M1793,-122.27C1793,-140.56 1793,-166 1793,-166 1793,-166 2900.07,-166 2900.07,-166"/>
<polygon fill="black" stroke="black" points="2900.07,-169.5 2910.07,-166 2900.07,-162.5 2900.07,-169.5"/>
</g>
<!-- RegisterUserComponent -->
<g id="node26" class="node">
<title>RegisterUserComponent</title>
<polygon fill="#ffffb3" stroke="black" points="1678.41,-122 1523.59,-122 1523.59,-86 1678.41,-86 1678.41,-122"/>
<text text-anchor="middle" x="1601" y="-99.8" font-family="Times,serif" font-size="14.00">RegisterUserComponent</text>
</g>
<!-- RegisterUserComponent&#45;&gt;AppModule -->
<g id="edge26" class="edge">
<title>RegisterUserComponent&#45;&gt;AppModule</title>
<path fill="none" stroke="black" d="M1601,-122.17C1601,-141.09 1601,-168 1601,-168 1601,-168 2900.09,-168 2900.09,-168"/>
<polygon fill="black" stroke="black" points="2900.09,-171.5 2910.09,-168 2900.09,-164.5 2900.09,-171.5"/>
</g>
<!-- SolicitudesAdminComponent -->
<g id="node27" class="node">
<title>SolicitudesAdminComponent</title>
<polygon fill="#ffffb3" stroke="black" points="1506.44,-122 1323.56,-122 1323.56,-86 1506.44,-86 1506.44,-122"/>
<text text-anchor="middle" x="1415" y="-99.8" font-family="Times,serif" font-size="14.00">SolicitudesAdminComponent</text>
</g>
<!-- SolicitudesAdminComponent&#45;&gt;AppModule -->
<g id="edge27" class="edge">
<title>SolicitudesAdminComponent&#45;&gt;AppModule</title>
<path fill="none" stroke="black" d="M1415,-122.31C1415,-142.15 1415,-171 1415,-171 1415,-171 2900.09,-171 2900.09,-171"/>
<polygon fill="black" stroke="black" points="2900.09,-174.5 2910.09,-171 2900.09,-167.5 2900.09,-174.5"/>
</g>
<!-- SolicitudesAnimalComponent -->
<g id="node28" class="node">
<title>SolicitudesAnimalComponent</title>
<polygon fill="#ffffb3" stroke="black" points="1305.54,-122 1120.46,-122 1120.46,-86 1305.54,-86 1305.54,-122"/>
<text text-anchor="middle" x="1213" y="-99.8" font-family="Times,serif" font-size="14.00">SolicitudesAnimalComponent</text>
</g>
<!-- SolicitudesAnimalComponent&#45;&gt;AppModule -->
<g id="edge28" class="edge">
<title>SolicitudesAnimalComponent&#45;&gt;AppModule</title>
<path fill="none" stroke="black" d="M1213,-122.13C1213,-142.57 1213,-173 1213,-173 1213,-173 2900.3,-173 2900.3,-173"/>
<polygon fill="black" stroke="black" points="2900.3,-176.5 2910.3,-173 2900.3,-169.5 2900.3,-176.5"/>
</g>
<!-- SolicitudesAsociacionComponent -->
<g id="node29" class="node">
<title>SolicitudesAsociacionComponent</title>
<polygon fill="#ffffb3" stroke="black" points="1102.03,-122 895.97,-122 895.97,-86 1102.03,-86 1102.03,-122"/>
<text text-anchor="middle" x="999" y="-99.8" font-family="Times,serif" font-size="14.00">SolicitudesAsociacionComponent</text>
</g>
<!-- SolicitudesAsociacionComponent&#45;&gt;AppModule -->
<g id="edge29" class="edge">
<title>SolicitudesAsociacionComponent&#45;&gt;AppModule</title>
<path fill="none" stroke="black" d="M999,-122.28C999,-143.32 999,-175 999,-175 999,-175 2900.31,-175 2900.31,-175"/>
<polygon fill="black" stroke="black" points="2900.31,-178.5 2910.31,-175 2900.31,-171.5 2900.31,-178.5"/>
</g>
<!-- SolicitudesUsuarioComponent -->
<g id="node30" class="node">
<title>SolicitudesUsuarioComponent</title>
<polygon fill="#ffffb3" stroke="black" points="877.87,-122 690.13,-122 690.13,-86 877.87,-86 877.87,-122"/>
<text text-anchor="middle" x="784" y="-99.8" font-family="Times,serif" font-size="14.00">SolicitudesUsuarioComponent</text>
</g>
<!-- SolicitudesUsuarioComponent&#45;&gt;AppModule -->
<g id="edge30" class="edge">
<title>SolicitudesUsuarioComponent&#45;&gt;AppModule</title>
<path fill="none" stroke="black" d="M784,-122.04C784,-143.66 784,-177 784,-177 784,-177 2900.15,-177 2900.15,-177"/>
<polygon fill="black" stroke="black" points="2900.15,-180.5 2910.15,-177 2900.15,-173.5 2900.15,-180.5"/>
</g>
<!-- TipoAnimalComponent -->
<g id="node31" class="node">
<title>TipoAnimalComponent</title>
<polygon fill="#ffffb3" stroke="black" points="671.77,-122 522.23,-122 522.23,-86 671.77,-86 671.77,-122"/>
<text text-anchor="middle" x="597" y="-99.8" font-family="Times,serif" font-size="14.00">TipoAnimalComponent</text>
</g>
<!-- TipoAnimalComponent&#45;&gt;AppModule -->
<g id="edge31" class="edge">
<title>TipoAnimalComponent&#45;&gt;AppModule</title>
<path fill="none" stroke="black" d="M597,-122.16C597,-144.35 597,-179 597,-179 597,-179 2900.13,-179 2900.13,-179"/>
<polygon fill="black" stroke="black" points="2900.13,-182.5 2910.13,-179 2900.13,-175.5 2900.13,-182.5"/>
</g>
<!-- AppComponent  -->
<g id="node34" class="node">
<title>AppComponent </title>
<polygon fill="#80b1d3" stroke="black" points="3006.44,-252 2897.56,-252 2897.56,-216 3006.44,-216 3006.44,-252"/>
<text text-anchor="middle" x="2952" y="-229.8" font-family="Times,serif" font-size="14.00">AppComponent </text>
</g>
<!-- AppModule&#45;&gt;AppComponent  -->
<g id="edge33" class="edge">
<title>AppModule&#45;&gt;AppComponent </title>
<path fill="none" stroke="black" stroke-dasharray="1,5" d="M2952,-187.11C2952,-187.11 2952,-205.99 2952,-205.99"/>
<polygon fill="black" stroke="black" points="2948.5,-205.99 2952,-215.99 2955.5,-205.99 2948.5,-205.99"/>
</g>
<!-- AppRoutingModule -->
<g id="node33" class="node">
<title>AppRoutingModule</title>
<polygon fill="#8dd3c7" stroke="black" points="498.27,-122 495.27,-126 474.27,-126 471.27,-122 369.73,-122 369.73,-86 498.27,-86 498.27,-122"/>
<text text-anchor="middle" x="434" y="-99.8" font-family="Times,serif" font-size="14.00">AppRoutingModule</text>
</g>
<!-- AppRoutingModule&#45;&gt;AppModule -->
<g id="edge32" class="edge">
<title>AppRoutingModule&#45;&gt;AppModule</title>
<path fill="none" stroke="black" d="M434,-122.25C434,-145.02 434,-181 434,-181 434,-181 2900.14,-181 2900.14,-181"/>
<polygon fill="black" stroke="black" points="2900.14,-184.5 2910.14,-181 2900.14,-177.5 2900.14,-184.5"/>
</g>
<!-- AuthTokenService -->
<g id="node35" class="node">
<title>AuthTokenService</title>
<ellipse fill="#fdb462" stroke="black" cx="262" cy="-104" rx="83.95" ry="18"/>
<text text-anchor="middle" x="262" y="-99.8" font-family="Times,serif" font-size="14.00">AuthTokenService</text>
</g>
<!-- AuthTokenService&#45;&gt;AppModule -->
<g id="edge34" class="edge">
<title>AuthTokenService&#45;&gt;AppModule</title>
<path fill="none" stroke="black" d="M262,-122.32C262,-145.66 262,-183 262,-183 262,-183 2900.29,-183 2900.29,-183"/>
<polygon fill="black" stroke="black" points="2900.29,-186.5 2910.29,-183 2900.29,-179.5 2900.29,-186.5"/>
</g>
<!-- ComunService -->
<g id="node36" class="node">
<title>ComunService</title>
<ellipse fill="#fdb462" stroke="black" cx="92" cy="-104" rx="68.36" ry="18"/>
<text text-anchor="middle" x="92" y="-99.8" font-family="Times,serif" font-size="14.00">ComunService</text>
</g>
<!-- ComunService&#45;&gt;AppModule -->
<g id="edge35" class="edge">
<title>ComunService&#45;&gt;AppModule</title>
<path fill="none" stroke="black" d="M92,-122.38C92,-146.28 92,-185 92,-185 92,-185 2900.19,-185 2900.19,-185"/>
<polygon fill="black" stroke="black" points="2900.19,-188.5 2910.19,-185 2900.19,-181.5 2900.19,-188.5"/>
</g>
</g>
</svg>
